<?xml version="1.0" standalone="no"?>
 <!DOCTYPE svg PUBLIC "-//W3C//DTD SVG 1.1//EN" 
 "http://www.w3.org/Graphics/SVG/1.1/DTD/svg11.dtd"> 
<svg xmlns="http://www.w3.org/2000/svg" version="1.1" 
    width="29.7002cm" height="21.0007cm" viewBox="0 0 116930 82680 ">
<title>SVG Picture created as prs-B.Cu.svg date 2017/06/10 23:39:37 </title>
  <desc>Picture generated by PCBNEW </desc>
<g style="fill:#000000; fill-opacity:1;stroke:#000000; stroke-opacity:1;
stroke-linecap:round; stroke-linejoin:round; "
 transform="translate(0 0) scale(1 1)">
</g>
<g style="fill:#000000; fill-opacity:0.0; 
stroke:#000000; stroke-width:-0.000393701; stroke-opacity:1; 
stroke-linecap:round; stroke-linejoin:round;">
</g>
<g style="fill:#000000; fill-opacity:0.0; 
stroke:#000000; stroke-width:0; stroke-opacity:1; 
stroke-linecap:round; stroke-linejoin:round;">
</g>
<g style="fill:#000000; fill-opacity:1.0; 
stroke:#000000; stroke-width:0; stroke-opacity:1; 
stroke-linecap:round; stroke-linejoin:round;">
<polyline style="fill-rule:evenodd;"
points="15734,20534
15065,20534
15065,19865
15734,19865
15734,20534
" /> 
</g>
<g style="fill:#000000; fill-opacity:1.0; 
stroke:#000000; stroke-width:669.291; stroke-opacity:1; 
stroke-linecap:round; stroke-linejoin:round;">
</g>
<g style="fill:#000000; fill-opacity:0.0; 
stroke:#000000; stroke-width:669.291; stroke-opacity:1; 
stroke-linecap:round; stroke-linejoin:round;">
<path d="M16400 20200
L16400 20200
" />
<path d="M17400 20200
L17400 20200
" />
<path d="M18400 20200
L18400 20200
" />
<path d="M19400 20200
L19400 20200
" />
<path d="M20400 20200
L20400 20200
" />
<path d="M21400 20200
L21400 20200
" />
<path d="M22400 20200
L22400 20200
" />
<path d="M23400 20200
L23400 20200
" />
<path d="M24400 20200
L24400 20200
" />
<path d="M25400 20200
L25400 20200
" />
<path d="M26400 20200
L26400 20200
" />
<path d="M27400 20200
L27400 20200
" />
<path d="M28400 20200
L28400 20200
" />
<path d="M29400 20200
L29400 20200
" />
<path d="M30400 20200
L30400 20200
" />
<path d="M31400 20200
L31400 20200
" />
<path d="M32400 20200
L32400 20200
" />
<path d="M33400 20200
L33400 20200
" />
<path d="M34400 20200
L34400 20200
" />
<path d="M35400 20200
L35400 20200
" />
<path d="M36400 20200
L36400 20200
" />
<path d="M37400 20200
L37400 20200
" />
<path d="M38400 20200
L38400 20200
" />
<path d="M39400 20200
L39400 20200
" />
<path d="M40400 20200
L40400 20200
" />
</g>
<g style="fill:#000000; fill-opacity:0.0; 
stroke:#000000; stroke-width:0; stroke-opacity:1; 
stroke-linecap:round; stroke-linejoin:round;">
</g>
<g style="fill:#000000; fill-opacity:1.0; 
stroke:#000000; stroke-width:0; stroke-opacity:1; 
stroke-linecap:round; stroke-linejoin:round;">
<polyline style="fill-rule:evenodd;"
points="37485,33314
37485,32685
38114,32685
38114,33314
37485,33314
" /> 
</g>
<g style="fill:#000000; fill-opacity:1.0; 
stroke:#000000; stroke-width:629.921; stroke-opacity:1; 
stroke-linecap:round; stroke-linejoin:round;">
</g>
<g style="fill:#000000; fill-opacity:0.0; 
stroke:#000000; stroke-width:629.921; stroke-opacity:1; 
stroke-linecap:round; stroke-linejoin:round;">
<path d="M40800 39000
L40800 39000
" />
<path d="M37800 34000
L37800 34000
" />
<path d="M40800 38000
L40800 38000
" />
<path d="M37800 35000
L37800 35000
" />
<path d="M40800 37000
L40800 37000
" />
<path d="M37800 36000
L37800 36000
" />
<path d="M40800 36000
L40800 36000
" />
<path d="M37800 37000
L37800 37000
" />
<path d="M40800 35000
L40800 35000
" />
<path d="M37800 38000
L37800 38000
" />
<path d="M40800 34000
L40800 34000
" />
<path d="M37800 39000
L37800 39000
" />
<path d="M40800 33000
L40800 33000
" />
</g>
<g style="fill:#000000; fill-opacity:0.0; 
stroke:#000000; stroke-width:0; stroke-opacity:1; 
stroke-linecap:round; stroke-linejoin:round;">
</g>
<g style="fill:#000000; fill-opacity:1.0; 
stroke:#000000; stroke-width:0; stroke-opacity:1; 
stroke-linecap:round; stroke-linejoin:round;">
<polyline style="fill-rule:evenodd;"
points="14334,45334
13665,45334
13665,44665
14334,44665
14334,45334
" /> 
</g>
<g style="fill:#000000; fill-opacity:1.0; 
stroke:#000000; stroke-width:669.291; stroke-opacity:1; 
stroke-linecap:round; stroke-linejoin:round;">
</g>
<g style="fill:#000000; fill-opacity:0.0; 
stroke:#000000; stroke-width:669.291; stroke-opacity:1; 
stroke-linecap:round; stroke-linejoin:round;">
<path d="M14000 44000
L14000 44000
" />
<path d="M15000 45000
L15000 45000
" />
<path d="M15000 44000
L15000 44000
" />
<path d="M16000 45000
L16000 45000
" />
<path d="M16000 44000
L16000 44000
" />
<path d="M17000 45000
L17000 45000
" />
<path d="M17000 44000
L17000 44000
" />
<path d="M18000 45000
L18000 45000
" />
<path d="M18000 44000
L18000 44000
" />
<path d="M19000 45000
L19000 45000
" />
<path d="M19000 44000
L19000 44000
" />
<path d="M20000 45000
L20000 45000
" />
<path d="M20000 44000
L20000 44000
" />
<path d="M21000 45000
L21000 45000
" />
<path d="M21000 44000
L21000 44000
" />
<path d="M22000 45000
L22000 45000
" />
<path d="M22000 44000
L22000 44000
" />
<path d="M23000 45000
L23000 45000
" />
<path d="M23000 44000
L23000 44000
" />
<path d="M24000 45000
L24000 45000
" />
<path d="M24000 44000
L24000 44000
" />
<path d="M25000 45000
L25000 45000
" />
<path d="M25000 44000
L25000 44000
" />
<path d="M26000 45000
L26000 45000
" />
<path d="M26000 44000
L26000 44000
" />
<path d="M27000 45000
L27000 45000
" />
<path d="M27000 44000
L27000 44000
" />
<path d="M28000 45000
L28000 45000
" />
<path d="M28000 44000
L28000 44000
" />
<path d="M29000 45000
L29000 45000
" />
<path d="M29000 44000
L29000 44000
" />
</g>
<g style="fill:#000000; fill-opacity:0.0; 
stroke:#000000; stroke-width:0; stroke-opacity:1; 
stroke-linecap:round; stroke-linejoin:round;">
</g>
<g style="fill:#000000; fill-opacity:1.0; 
stroke:#000000; stroke-width:0; stroke-opacity:1; 
stroke-linecap:round; stroke-linejoin:round;">
<polyline style="fill-rule:evenodd;"
points="36134,45334
35465,45334
35465,44665
36134,44665
36134,45334
" /> 
</g>
<g style="fill:#000000; fill-opacity:1.0; 
stroke:#000000; stroke-width:669.291; stroke-opacity:1; 
stroke-linecap:round; stroke-linejoin:round;">
</g>
<g style="fill:#000000; fill-opacity:0.0; 
stroke:#000000; stroke-width:669.291; stroke-opacity:1; 
stroke-linecap:round; stroke-linejoin:round;">
<path d="M35800 44000
L35800 44000
" />
<path d="M36800 45000
L36800 45000
" />
<path d="M36800 44000
L36800 44000
" />
<path d="M37800 45000
L37800 45000
" />
<path d="M37800 44000
L37800 44000
" />
<path d="M38800 45000
L38800 45000
" />
<path d="M38800 44000
L38800 44000
" />
<path d="M39800 45000
L39800 45000
" />
<path d="M39800 44000
L39800 44000
" />
<path d="M40800 45000
L40800 45000
" />
<path d="M40800 44000
L40800 44000
" />
<path d="M41800 45000
L41800 45000
" />
<path d="M41800 44000
L41800 44000
" />
<path d="M42800 45000
L42800 45000
" />
<path d="M42800 44000
L42800 44000
" />
</g>
<g style="fill:#000000; fill-opacity:0.0; 
stroke:#000000; stroke-width:0; stroke-opacity:1; 
stroke-linecap:round; stroke-linejoin:round;">
</g>
<g style="fill:#000000; fill-opacity:1.0; 
stroke:#000000; stroke-width:0; stroke-opacity:1; 
stroke-linecap:round; stroke-linejoin:round;">
<polyline style="fill-rule:evenodd;"
points="12685,25114
12685,24485
13314,24485
13314,25114
12685,25114
" /> 
</g>
<g style="fill:#000000; fill-opacity:1.0; 
stroke:#000000; stroke-width:629.921; stroke-opacity:1; 
stroke-linecap:round; stroke-linejoin:round;">
</g>
<g style="fill:#000000; fill-opacity:0.0; 
stroke:#000000; stroke-width:629.921; stroke-opacity:1; 
stroke-linecap:round; stroke-linejoin:round;">
<path d="M16000 30800
L16000 30800
" />
<path d="M13000 25800
L13000 25800
" />
<path d="M16000 29800
L16000 29800
" />
<path d="M13000 26800
L13000 26800
" />
<path d="M16000 28800
L16000 28800
" />
<path d="M13000 27800
L13000 27800
" />
<path d="M16000 27800
L16000 27800
" />
<path d="M13000 28800
L13000 28800
" />
<path d="M16000 26800
L16000 26800
" />
<path d="M13000 29800
L13000 29800
" />
<path d="M16000 25800
L16000 25800
" />
<path d="M13000 30800
L13000 30800
" />
<path d="M16000 24800
L16000 24800
" />
</g>
<g style="fill:#000000; fill-opacity:0.0; 
stroke:#000000; stroke-width:0; stroke-opacity:1; 
stroke-linecap:round; stroke-linejoin:round;">
</g>
<g style="fill:#000000; fill-opacity:1.0; 
stroke:#000000; stroke-width:0; stroke-opacity:1; 
stroke-linecap:round; stroke-linejoin:round;">
<polyline style="fill-rule:evenodd;"
points="12685,33314
12685,32685
13314,32685
13314,33314
12685,33314
" /> 
</g>
<g style="fill:#000000; fill-opacity:1.0; 
stroke:#000000; stroke-width:629.921; stroke-opacity:1; 
stroke-linecap:round; stroke-linejoin:round;">
</g>
<g style="fill:#000000; fill-opacity:0.0; 
stroke:#000000; stroke-width:629.921; stroke-opacity:1; 
stroke-linecap:round; stroke-linejoin:round;">
<path d="M16000 39000
L16000 39000
" />
<path d="M13000 34000
L13000 34000
" />
<path d="M16000 38000
L16000 38000
" />
<path d="M13000 35000
L13000 35000
" />
<path d="M16000 37000
L16000 37000
" />
<path d="M13000 36000
L13000 36000
" />
<path d="M16000 36000
L16000 36000
" />
<path d="M13000 37000
L13000 37000
" />
<path d="M16000 35000
L16000 35000
" />
<path d="M13000 38000
L13000 38000
" />
<path d="M16000 34000
L16000 34000
" />
<path d="M13000 39000
L13000 39000
" />
<path d="M16000 33000
L16000 33000
" />
</g>
<g style="fill:#000000; fill-opacity:0.0; 
stroke:#000000; stroke-width:0; stroke-opacity:1; 
stroke-linecap:round; stroke-linejoin:round;">
</g>
<g style="fill:#000000; fill-opacity:1.0; 
stroke:#000000; stroke-width:0; stroke-opacity:1; 
stroke-linecap:round; stroke-linejoin:round;">
<polyline style="fill-rule:evenodd;"
points="25085,25114
25085,24485
25714,24485
25714,25114
25085,25114
" /> 
</g>
<g style="fill:#000000; fill-opacity:1.0; 
stroke:#000000; stroke-width:629.921; stroke-opacity:1; 
stroke-linecap:round; stroke-linejoin:round;">
</g>
<g style="fill:#000000; fill-opacity:0.0; 
stroke:#000000; stroke-width:629.921; stroke-opacity:1; 
stroke-linecap:round; stroke-linejoin:round;">
<path d="M28400 30800
L28400 30800
" />
<path d="M25400 25800
L25400 25800
" />
<path d="M28400 29800
L28400 29800
" />
<path d="M25400 26800
L25400 26800
" />
<path d="M28400 28800
L28400 28800
" />
<path d="M25400 27800
L25400 27800
" />
<path d="M28400 27800
L28400 27800
" />
<path d="M25400 28800
L25400 28800
" />
<path d="M28400 26800
L28400 26800
" />
<path d="M25400 29800
L25400 29800
" />
<path d="M28400 25800
L28400 25800
" />
<path d="M25400 30800
L25400 30800
" />
<path d="M28400 24800
L28400 24800
" />
</g>
<g style="fill:#000000; fill-opacity:0.0; 
stroke:#000000; stroke-width:0; stroke-opacity:1; 
stroke-linecap:round; stroke-linejoin:round;">
</g>
<g style="fill:#000000; fill-opacity:1.0; 
stroke:#000000; stroke-width:0; stroke-opacity:1; 
stroke-linecap:round; stroke-linejoin:round;">
<polyline style="fill-rule:evenodd;"
points="25085,33314
25085,32685
25714,32685
25714,33314
25085,33314
" /> 
</g>
<g style="fill:#000000; fill-opacity:1.0; 
stroke:#000000; stroke-width:629.921; stroke-opacity:1; 
stroke-linecap:round; stroke-linejoin:round;">
</g>
<g style="fill:#000000; fill-opacity:0.0; 
stroke:#000000; stroke-width:629.921; stroke-opacity:1; 
stroke-linecap:round; stroke-linejoin:round;">
<path d="M28400 39000
L28400 39000
" />
<path d="M25400 34000
L25400 34000
" />
<path d="M28400 38000
L28400 38000
" />
<path d="M25400 35000
L25400 35000
" />
<path d="M28400 37000
L28400 37000
" />
<path d="M25400 36000
L25400 36000
" />
<path d="M28400 36000
L28400 36000
" />
<path d="M25400 37000
L25400 37000
" />
<path d="M28400 35000
L28400 35000
" />
<path d="M25400 38000
L25400 38000
" />
<path d="M28400 34000
L28400 34000
" />
<path d="M25400 39000
L25400 39000
" />
<path d="M28400 33000
L28400 33000
" />
</g>
<g style="fill:#000000; fill-opacity:0.0; 
stroke:#000000; stroke-width:0; stroke-opacity:1; 
stroke-linecap:round; stroke-linejoin:round;">
</g>
<g style="fill:#000000; fill-opacity:1.0; 
stroke:#000000; stroke-width:0; stroke-opacity:1; 
stroke-linecap:round; stroke-linejoin:round;">
<polyline style="fill-rule:evenodd;"
points="37485,25114
37485,24485
38114,24485
38114,25114
37485,25114
" /> 
</g>
<g style="fill:#000000; fill-opacity:1.0; 
stroke:#000000; stroke-width:629.921; stroke-opacity:1; 
stroke-linecap:round; stroke-linejoin:round;">
</g>
<g style="fill:#000000; fill-opacity:0.0; 
stroke:#000000; stroke-width:629.921; stroke-opacity:1; 
stroke-linecap:round; stroke-linejoin:round;">
<path d="M40800 30800
L40800 30800
" />
<path d="M37800 25800
L37800 25800
" />
<path d="M40800 29800
L40800 29800
" />
<path d="M37800 26800
L37800 26800
" />
<path d="M40800 28800
L40800 28800
" />
<path d="M37800 27800
L37800 27800
" />
<path d="M40800 27800
L40800 27800
" />
<path d="M37800 28800
L37800 28800
" />
<path d="M40800 26800
L40800 26800
" />
<path d="M37800 29800
L37800 29800
" />
<path d="M40800 25800
L40800 25800
" />
<path d="M37800 30800
L37800 30800
" />
<path d="M40800 24800
L40800 24800
" />
</g>
<g style="fill:#000000; fill-opacity:1.0; 
stroke:#000000; stroke-width:0; stroke-opacity:1; 
stroke-linecap:round; stroke-linejoin:round;">
<circle cx="11800" cy="26800" r="314.961" /> 
</g>
<g style="fill:#000000; fill-opacity:1.0; 
stroke:#000000; stroke-width:39.3701; stroke-opacity:1; 
stroke-linecap:round; stroke-linejoin:round;">
</g>
<g style="fill:#000000; fill-opacity:1.0; 
stroke:#000000; stroke-width:629.921; stroke-opacity:1; 
stroke-linecap:round; stroke-linejoin:round;">
</g>
<g style="fill:#000000; fill-opacity:0.0; 
stroke:#000000; stroke-width:629.921; stroke-opacity:1; 
stroke-linecap:round; stroke-linejoin:round;">
<path d="M8800 26800
L8800 26800
" />
</g>
<g style="fill:#000000; fill-opacity:1.0; 
stroke:#000000; stroke-width:0; stroke-opacity:1; 
stroke-linecap:round; stroke-linejoin:round;">
<circle cx="11800" cy="28800" r="314.961" /> 
</g>
<g style="fill:#000000; fill-opacity:1.0; 
stroke:#000000; stroke-width:39.3701; stroke-opacity:1; 
stroke-linecap:round; stroke-linejoin:round;">
</g>
<g style="fill:#000000; fill-opacity:1.0; 
stroke:#000000; stroke-width:629.921; stroke-opacity:1; 
stroke-linecap:round; stroke-linejoin:round;">
</g>
<g style="fill:#000000; fill-opacity:0.0; 
stroke:#000000; stroke-width:629.921; stroke-opacity:1; 
stroke-linecap:round; stroke-linejoin:round;">
<path d="M8800 28800
L8800 28800
" />
</g>
<g style="fill:#000000; fill-opacity:1.0; 
stroke:#000000; stroke-width:0; stroke-opacity:1; 
stroke-linecap:round; stroke-linejoin:round;">
<circle cx="17200" cy="28800" r="314.961" /> 
</g>
<g style="fill:#000000; fill-opacity:1.0; 
stroke:#000000; stroke-width:39.3701; stroke-opacity:1; 
stroke-linecap:round; stroke-linejoin:round;">
</g>
<g style="fill:#000000; fill-opacity:1.0; 
stroke:#000000; stroke-width:629.921; stroke-opacity:1; 
stroke-linecap:round; stroke-linejoin:round;">
</g>
<g style="fill:#000000; fill-opacity:0.0; 
stroke:#000000; stroke-width:629.921; stroke-opacity:1; 
stroke-linecap:round; stroke-linejoin:round;">
<path d="M20200 28800
L20200 28800
" />
</g>
<g style="fill:#000000; fill-opacity:1.0; 
stroke:#000000; stroke-width:0; stroke-opacity:1; 
stroke-linecap:round; stroke-linejoin:round;">
<circle cx="17200" cy="26800" r="314.961" /> 
</g>
<g style="fill:#000000; fill-opacity:1.0; 
stroke:#000000; stroke-width:39.3701; stroke-opacity:1; 
stroke-linecap:round; stroke-linejoin:round;">
</g>
<g style="fill:#000000; fill-opacity:1.0; 
stroke:#000000; stroke-width:629.921; stroke-opacity:1; 
stroke-linecap:round; stroke-linejoin:round;">
</g>
<g style="fill:#000000; fill-opacity:0.0; 
stroke:#000000; stroke-width:629.921; stroke-opacity:1; 
stroke-linecap:round; stroke-linejoin:round;">
<path d="M20200 26800
L20200 26800
" />
</g>
<g style="fill:#000000; fill-opacity:1.0; 
stroke:#000000; stroke-width:0; stroke-opacity:1; 
stroke-linecap:round; stroke-linejoin:round;">
<circle cx="11800" cy="35000" r="314.961" /> 
</g>
<g style="fill:#000000; fill-opacity:1.0; 
stroke:#000000; stroke-width:39.3701; stroke-opacity:1; 
stroke-linecap:round; stroke-linejoin:round;">
</g>
<g style="fill:#000000; fill-opacity:1.0; 
stroke:#000000; stroke-width:629.921; stroke-opacity:1; 
stroke-linecap:round; stroke-linejoin:round;">
</g>
<g style="fill:#000000; fill-opacity:0.0; 
stroke:#000000; stroke-width:629.921; stroke-opacity:1; 
stroke-linecap:round; stroke-linejoin:round;">
<path d="M8800 35000
L8800 35000
" />
</g>
<g style="fill:#000000; fill-opacity:1.0; 
stroke:#000000; stroke-width:0; stroke-opacity:1; 
stroke-linecap:round; stroke-linejoin:round;">
<circle cx="11800" cy="37000" r="314.961" /> 
</g>
<g style="fill:#000000; fill-opacity:1.0; 
stroke:#000000; stroke-width:39.3701; stroke-opacity:1; 
stroke-linecap:round; stroke-linejoin:round;">
</g>
<g style="fill:#000000; fill-opacity:1.0; 
stroke:#000000; stroke-width:629.921; stroke-opacity:1; 
stroke-linecap:round; stroke-linejoin:round;">
</g>
<g style="fill:#000000; fill-opacity:0.0; 
stroke:#000000; stroke-width:629.921; stroke-opacity:1; 
stroke-linecap:round; stroke-linejoin:round;">
<path d="M8800 37000
L8800 37000
" />
</g>
<g style="fill:#000000; fill-opacity:1.0; 
stroke:#000000; stroke-width:0; stroke-opacity:1; 
stroke-linecap:round; stroke-linejoin:round;">
<circle cx="17200" cy="37000" r="314.961" /> 
</g>
<g style="fill:#000000; fill-opacity:1.0; 
stroke:#000000; stroke-width:39.3701; stroke-opacity:1; 
stroke-linecap:round; stroke-linejoin:round;">
</g>
<g style="fill:#000000; fill-opacity:1.0; 
stroke:#000000; stroke-width:629.921; stroke-opacity:1; 
stroke-linecap:round; stroke-linejoin:round;">
</g>
<g style="fill:#000000; fill-opacity:0.0; 
stroke:#000000; stroke-width:629.921; stroke-opacity:1; 
stroke-linecap:round; stroke-linejoin:round;">
<path d="M20200 37000
L20200 37000
" />
</g>
<g style="fill:#000000; fill-opacity:1.0; 
stroke:#000000; stroke-width:0; stroke-opacity:1; 
stroke-linecap:round; stroke-linejoin:round;">
<circle cx="17200" cy="35000" r="314.961" /> 
</g>
<g style="fill:#000000; fill-opacity:1.0; 
stroke:#000000; stroke-width:39.3701; stroke-opacity:1; 
stroke-linecap:round; stroke-linejoin:round;">
</g>
<g style="fill:#000000; fill-opacity:1.0; 
stroke:#000000; stroke-width:629.921; stroke-opacity:1; 
stroke-linecap:round; stroke-linejoin:round;">
</g>
<g style="fill:#000000; fill-opacity:0.0; 
stroke:#000000; stroke-width:629.921; stroke-opacity:1; 
stroke-linecap:round; stroke-linejoin:round;">
<path d="M20200 35000
L20200 35000
" />
</g>
<g style="fill:#000000; fill-opacity:1.0; 
stroke:#000000; stroke-width:0; stroke-opacity:1; 
stroke-linecap:round; stroke-linejoin:round;">
<circle cx="24200" cy="26800" r="314.961" /> 
</g>
<g style="fill:#000000; fill-opacity:1.0; 
stroke:#000000; stroke-width:39.3701; stroke-opacity:1; 
stroke-linecap:round; stroke-linejoin:round;">
</g>
<g style="fill:#000000; fill-opacity:1.0; 
stroke:#000000; stroke-width:629.921; stroke-opacity:1; 
stroke-linecap:round; stroke-linejoin:round;">
</g>
<g style="fill:#000000; fill-opacity:0.0; 
stroke:#000000; stroke-width:629.921; stroke-opacity:1; 
stroke-linecap:round; stroke-linejoin:round;">
<path d="M21200 26800
L21200 26800
" />
</g>
<g style="fill:#000000; fill-opacity:1.0; 
stroke:#000000; stroke-width:0; stroke-opacity:1; 
stroke-linecap:round; stroke-linejoin:round;">
<circle cx="24200" cy="28800" r="314.961" /> 
</g>
<g style="fill:#000000; fill-opacity:1.0; 
stroke:#000000; stroke-width:39.3701; stroke-opacity:1; 
stroke-linecap:round; stroke-linejoin:round;">
</g>
<g style="fill:#000000; fill-opacity:1.0; 
stroke:#000000; stroke-width:629.921; stroke-opacity:1; 
stroke-linecap:round; stroke-linejoin:round;">
</g>
<g style="fill:#000000; fill-opacity:0.0; 
stroke:#000000; stroke-width:629.921; stroke-opacity:1; 
stroke-linecap:round; stroke-linejoin:round;">
<path d="M21200 28800
L21200 28800
" />
</g>
<g style="fill:#000000; fill-opacity:1.0; 
stroke:#000000; stroke-width:0; stroke-opacity:1; 
stroke-linecap:round; stroke-linejoin:round;">
<circle cx="29600" cy="28800" r="314.961" /> 
</g>
<g style="fill:#000000; fill-opacity:1.0; 
stroke:#000000; stroke-width:39.3701; stroke-opacity:1; 
stroke-linecap:round; stroke-linejoin:round;">
</g>
<g style="fill:#000000; fill-opacity:1.0; 
stroke:#000000; stroke-width:629.921; stroke-opacity:1; 
stroke-linecap:round; stroke-linejoin:round;">
</g>
<g style="fill:#000000; fill-opacity:0.0; 
stroke:#000000; stroke-width:629.921; stroke-opacity:1; 
stroke-linecap:round; stroke-linejoin:round;">
<path d="M32600 28800
L32600 28800
" />
</g>
<g style="fill:#000000; fill-opacity:1.0; 
stroke:#000000; stroke-width:0; stroke-opacity:1; 
stroke-linecap:round; stroke-linejoin:round;">
<circle cx="29600" cy="26800" r="314.961" /> 
</g>
<g style="fill:#000000; fill-opacity:1.0; 
stroke:#000000; stroke-width:39.3701; stroke-opacity:1; 
stroke-linecap:round; stroke-linejoin:round;">
</g>
<g style="fill:#000000; fill-opacity:1.0; 
stroke:#000000; stroke-width:629.921; stroke-opacity:1; 
stroke-linecap:round; stroke-linejoin:round;">
</g>
<g style="fill:#000000; fill-opacity:0.0; 
stroke:#000000; stroke-width:629.921; stroke-opacity:1; 
stroke-linecap:round; stroke-linejoin:round;">
<path d="M32600 26800
L32600 26800
" />
</g>
<g style="fill:#000000; fill-opacity:1.0; 
stroke:#000000; stroke-width:0; stroke-opacity:1; 
stroke-linecap:round; stroke-linejoin:round;">
<circle cx="24200" cy="35000" r="314.961" /> 
</g>
<g style="fill:#000000; fill-opacity:1.0; 
stroke:#000000; stroke-width:39.3701; stroke-opacity:1; 
stroke-linecap:round; stroke-linejoin:round;">
</g>
<g style="fill:#000000; fill-opacity:1.0; 
stroke:#000000; stroke-width:629.921; stroke-opacity:1; 
stroke-linecap:round; stroke-linejoin:round;">
</g>
<g style="fill:#000000; fill-opacity:0.0; 
stroke:#000000; stroke-width:629.921; stroke-opacity:1; 
stroke-linecap:round; stroke-linejoin:round;">
<path d="M21200 35000
L21200 35000
" />
</g>
<g style="fill:#000000; fill-opacity:1.0; 
stroke:#000000; stroke-width:0; stroke-opacity:1; 
stroke-linecap:round; stroke-linejoin:round;">
<circle cx="24200" cy="37000" r="314.961" /> 
</g>
<g style="fill:#000000; fill-opacity:1.0; 
stroke:#000000; stroke-width:39.3701; stroke-opacity:1; 
stroke-linecap:round; stroke-linejoin:round;">
</g>
<g style="fill:#000000; fill-opacity:1.0; 
stroke:#000000; stroke-width:629.921; stroke-opacity:1; 
stroke-linecap:round; stroke-linejoin:round;">
</g>
<g style="fill:#000000; fill-opacity:0.0; 
stroke:#000000; stroke-width:629.921; stroke-opacity:1; 
stroke-linecap:round; stroke-linejoin:round;">
<path d="M21200 37000
L21200 37000
" />
</g>
<g style="fill:#000000; fill-opacity:1.0; 
stroke:#000000; stroke-width:0; stroke-opacity:1; 
stroke-linecap:round; stroke-linejoin:round;">
<circle cx="29600" cy="37000" r="314.961" /> 
</g>
<g style="fill:#000000; fill-opacity:1.0; 
stroke:#000000; stroke-width:39.3701; stroke-opacity:1; 
stroke-linecap:round; stroke-linejoin:round;">
</g>
<g style="fill:#000000; fill-opacity:1.0; 
stroke:#000000; stroke-width:629.921; stroke-opacity:1; 
stroke-linecap:round; stroke-linejoin:round;">
</g>
<g style="fill:#000000; fill-opacity:0.0; 
stroke:#000000; stroke-width:629.921; stroke-opacity:1; 
stroke-linecap:round; stroke-linejoin:round;">
<path d="M32600 37000
L32600 37000
" />
</g>
<g style="fill:#000000; fill-opacity:1.0; 
stroke:#000000; stroke-width:0; stroke-opacity:1; 
stroke-linecap:round; stroke-linejoin:round;">
<circle cx="29600" cy="35000" r="314.961" /> 
</g>
<g style="fill:#000000; fill-opacity:1.0; 
stroke:#000000; stroke-width:39.3701; stroke-opacity:1; 
stroke-linecap:round; stroke-linejoin:round;">
</g>
<g style="fill:#000000; fill-opacity:1.0; 
stroke:#000000; stroke-width:629.921; stroke-opacity:1; 
stroke-linecap:round; stroke-linejoin:round;">
</g>
<g style="fill:#000000; fill-opacity:0.0; 
stroke:#000000; stroke-width:629.921; stroke-opacity:1; 
stroke-linecap:round; stroke-linejoin:round;">
<path d="M32600 35000
L32600 35000
" />
</g>
<g style="fill:#000000; fill-opacity:1.0; 
stroke:#000000; stroke-width:0; stroke-opacity:1; 
stroke-linecap:round; stroke-linejoin:round;">
<circle cx="33600" cy="25800" r="314.961" /> 
</g>
<g style="fill:#000000; fill-opacity:1.0; 
stroke:#000000; stroke-width:39.3701; stroke-opacity:1; 
stroke-linecap:round; stroke-linejoin:round;">
</g>
<g style="fill:#000000; fill-opacity:1.0; 
stroke:#000000; stroke-width:629.921; stroke-opacity:1; 
stroke-linecap:round; stroke-linejoin:round;">
</g>
<g style="fill:#000000; fill-opacity:0.0; 
stroke:#000000; stroke-width:629.921; stroke-opacity:1; 
stroke-linecap:round; stroke-linejoin:round;">
<path d="M36600 25800
L36600 25800
" />
</g>
<g style="fill:#000000; fill-opacity:1.0; 
stroke:#000000; stroke-width:0; stroke-opacity:1; 
stroke-linecap:round; stroke-linejoin:round;">
<circle cx="33600" cy="29800" r="314.961" /> 
</g>
<g style="fill:#000000; fill-opacity:1.0; 
stroke:#000000; stroke-width:39.3701; stroke-opacity:1; 
stroke-linecap:round; stroke-linejoin:round;">
</g>
<g style="fill:#000000; fill-opacity:1.0; 
stroke:#000000; stroke-width:629.921; stroke-opacity:1; 
stroke-linecap:round; stroke-linejoin:round;">
</g>
<g style="fill:#000000; fill-opacity:0.0; 
stroke:#000000; stroke-width:629.921; stroke-opacity:1; 
stroke-linecap:round; stroke-linejoin:round;">
<path d="M36600 29800
L36600 29800
" />
</g>
<g style="fill:#000000; fill-opacity:1.0; 
stroke:#000000; stroke-width:0; stroke-opacity:1; 
stroke-linecap:round; stroke-linejoin:round;">
<circle cx="45000" cy="29800" r="314.961" /> 
</g>
<g style="fill:#000000; fill-opacity:1.0; 
stroke:#000000; stroke-width:39.3701; stroke-opacity:1; 
stroke-linecap:round; stroke-linejoin:round;">
</g>
<g style="fill:#000000; fill-opacity:1.0; 
stroke:#000000; stroke-width:629.921; stroke-opacity:1; 
stroke-linecap:round; stroke-linejoin:round;">
</g>
<g style="fill:#000000; fill-opacity:0.0; 
stroke:#000000; stroke-width:629.921; stroke-opacity:1; 
stroke-linecap:round; stroke-linejoin:round;">
<path d="M42000 29800
L42000 29800
" />
</g>
<g style="fill:#000000; fill-opacity:1.0; 
stroke:#000000; stroke-width:0; stroke-opacity:1; 
stroke-linecap:round; stroke-linejoin:round;">
<circle cx="45000" cy="25800" r="314.961" /> 
</g>
<g style="fill:#000000; fill-opacity:1.0; 
stroke:#000000; stroke-width:39.3701; stroke-opacity:1; 
stroke-linecap:round; stroke-linejoin:round;">
</g>
<g style="fill:#000000; fill-opacity:1.0; 
stroke:#000000; stroke-width:629.921; stroke-opacity:1; 
stroke-linecap:round; stroke-linejoin:round;">
</g>
<g style="fill:#000000; fill-opacity:0.0; 
stroke:#000000; stroke-width:629.921; stroke-opacity:1; 
stroke-linecap:round; stroke-linejoin:round;">
<path d="M42000 25800
L42000 25800
" />
</g>
<g style="fill:#000000; fill-opacity:1.0; 
stroke:#000000; stroke-width:0; stroke-opacity:1; 
stroke-linecap:round; stroke-linejoin:round;">
<circle cx="36600" cy="26800" r="314.961" /> 
</g>
<g style="fill:#000000; fill-opacity:1.0; 
stroke:#000000; stroke-width:39.3701; stroke-opacity:1; 
stroke-linecap:round; stroke-linejoin:round;">
</g>
<g style="fill:#000000; fill-opacity:1.0; 
stroke:#000000; stroke-width:629.921; stroke-opacity:1; 
stroke-linecap:round; stroke-linejoin:round;">
</g>
<g style="fill:#000000; fill-opacity:0.0; 
stroke:#000000; stroke-width:629.921; stroke-opacity:1; 
stroke-linecap:round; stroke-linejoin:round;">
<path d="M33600 26800
L33600 26800
" />
</g>
<g style="fill:#000000; fill-opacity:1.0; 
stroke:#000000; stroke-width:0; stroke-opacity:1; 
stroke-linecap:round; stroke-linejoin:round;">
<circle cx="36600" cy="28800" r="314.961" /> 
</g>
<g style="fill:#000000; fill-opacity:1.0; 
stroke:#000000; stroke-width:39.3701; stroke-opacity:1; 
stroke-linecap:round; stroke-linejoin:round;">
</g>
<g style="fill:#000000; fill-opacity:1.0; 
stroke:#000000; stroke-width:629.921; stroke-opacity:1; 
stroke-linecap:round; stroke-linejoin:round;">
</g>
<g style="fill:#000000; fill-opacity:0.0; 
stroke:#000000; stroke-width:629.921; stroke-opacity:1; 
stroke-linecap:round; stroke-linejoin:round;">
<path d="M33600 28800
L33600 28800
" />
</g>
<g style="fill:#000000; fill-opacity:1.0; 
stroke:#000000; stroke-width:0; stroke-opacity:1; 
stroke-linecap:round; stroke-linejoin:round;">
<circle cx="42000" cy="28800" r="314.961" /> 
</g>
<g style="fill:#000000; fill-opacity:1.0; 
stroke:#000000; stroke-width:39.3701; stroke-opacity:1; 
stroke-linecap:round; stroke-linejoin:round;">
</g>
<g style="fill:#000000; fill-opacity:1.0; 
stroke:#000000; stroke-width:629.921; stroke-opacity:1; 
stroke-linecap:round; stroke-linejoin:round;">
</g>
<g style="fill:#000000; fill-opacity:0.0; 
stroke:#000000; stroke-width:629.921; stroke-opacity:1; 
stroke-linecap:round; stroke-linejoin:round;">
<path d="M45000 28800
L45000 28800
" />
</g>
<g style="fill:#000000; fill-opacity:1.0; 
stroke:#000000; stroke-width:0; stroke-opacity:1; 
stroke-linecap:round; stroke-linejoin:round;">
<circle cx="42000" cy="26800" r="314.961" /> 
</g>
<g style="fill:#000000; fill-opacity:1.0; 
stroke:#000000; stroke-width:39.3701; stroke-opacity:1; 
stroke-linecap:round; stroke-linejoin:round;">
</g>
<g style="fill:#000000; fill-opacity:1.0; 
stroke:#000000; stroke-width:629.921; stroke-opacity:1; 
stroke-linecap:round; stroke-linejoin:round;">
</g>
<g style="fill:#000000; fill-opacity:0.0; 
stroke:#000000; stroke-width:629.921; stroke-opacity:1; 
stroke-linecap:round; stroke-linejoin:round;">
<path d="M45000 26800
L45000 26800
" />
</g>
<g style="fill:#000000; fill-opacity:1.0; 
stroke:#000000; stroke-width:0; stroke-opacity:1; 
stroke-linecap:round; stroke-linejoin:round;">
<circle cx="36600" cy="35000" r="314.961" /> 
</g>
<g style="fill:#000000; fill-opacity:1.0; 
stroke:#000000; stroke-width:39.3701; stroke-opacity:1; 
stroke-linecap:round; stroke-linejoin:round;">
</g>
<g style="fill:#000000; fill-opacity:1.0; 
stroke:#000000; stroke-width:629.921; stroke-opacity:1; 
stroke-linecap:round; stroke-linejoin:round;">
</g>
<g style="fill:#000000; fill-opacity:0.0; 
stroke:#000000; stroke-width:629.921; stroke-opacity:1; 
stroke-linecap:round; stroke-linejoin:round;">
<path d="M33600 35000
L33600 35000
" />
</g>
<g style="fill:#000000; fill-opacity:1.0; 
stroke:#000000; stroke-width:0; stroke-opacity:1; 
stroke-linecap:round; stroke-linejoin:round;">
<circle cx="36600" cy="37000" r="314.961" /> 
</g>
<g style="fill:#000000; fill-opacity:1.0; 
stroke:#000000; stroke-width:39.3701; stroke-opacity:1; 
stroke-linecap:round; stroke-linejoin:round;">
</g>
<g style="fill:#000000; fill-opacity:1.0; 
stroke:#000000; stroke-width:629.921; stroke-opacity:1; 
stroke-linecap:round; stroke-linejoin:round;">
</g>
<g style="fill:#000000; fill-opacity:0.0; 
stroke:#000000; stroke-width:629.921; stroke-opacity:1; 
stroke-linecap:round; stroke-linejoin:round;">
<path d="M33600 37000
L33600 37000
" />
</g>
<g style="fill:#000000; fill-opacity:1.0; 
stroke:#000000; stroke-width:0; stroke-opacity:1; 
stroke-linecap:round; stroke-linejoin:round;">
<circle cx="41800" cy="37000" r="314.961" /> 
</g>
<g style="fill:#000000; fill-opacity:1.0; 
stroke:#000000; stroke-width:39.3701; stroke-opacity:1; 
stroke-linecap:round; stroke-linejoin:round;">
</g>
<g style="fill:#000000; fill-opacity:1.0; 
stroke:#000000; stroke-width:629.921; stroke-opacity:1; 
stroke-linecap:round; stroke-linejoin:round;">
</g>
<g style="fill:#000000; fill-opacity:0.0; 
stroke:#000000; stroke-width:629.921; stroke-opacity:1; 
stroke-linecap:round; stroke-linejoin:round;">
<path d="M44800 37000
L44800 37000
" />
</g>
<g style="fill:#000000; fill-opacity:1.0; 
stroke:#000000; stroke-width:0; stroke-opacity:1; 
stroke-linecap:round; stroke-linejoin:round;">
<circle cx="41800" cy="35000" r="314.961" /> 
</g>
<g style="fill:#000000; fill-opacity:1.0; 
stroke:#000000; stroke-width:39.3701; stroke-opacity:1; 
stroke-linecap:round; stroke-linejoin:round;">
</g>
<g style="fill:#000000; fill-opacity:1.0; 
stroke:#000000; stroke-width:629.921; stroke-opacity:1; 
stroke-linecap:round; stroke-linejoin:round;">
</g>
<g style="fill:#000000; fill-opacity:0.0; 
stroke:#000000; stroke-width:629.921; stroke-opacity:1; 
stroke-linecap:round; stroke-linejoin:round;">
<path d="M44800 35000
L44800 35000
" />
</g>
<g style="fill:#000000; fill-opacity:0.0; 
stroke:#000000; stroke-width:0; stroke-opacity:1; 
stroke-linecap:round; stroke-linejoin:round;">
</g>
<g style="fill:#000000; fill-opacity:1.0; 
stroke:#000000; stroke-width:0; stroke-opacity:1; 
stroke-linecap:round; stroke-linejoin:round;">
<polyline style="fill-rule:evenodd;"
points="10934,20534
10265,20534
10265,19865
10934,19865
10934,20534
" /> 
</g>
<g style="fill:#000000; fill-opacity:1.0; 
stroke:#000000; stroke-width:669.291; stroke-opacity:1; 
stroke-linecap:round; stroke-linejoin:round;">
</g>
<g style="fill:#000000; fill-opacity:0.0; 
stroke:#000000; stroke-width:669.291; stroke-opacity:1; 
stroke-linecap:round; stroke-linejoin:round;">
<path d="M11600 20200
L11600 20200
" />
<path d="M12600 20200
L12600 20200
" />
</g>
<g style="fill:#000000; fill-opacity:1.0; 
stroke:#000000; stroke-width:0; stroke-opacity:1; 
stroke-linecap:round; stroke-linejoin:round;">
<circle cx="33600" cy="34000" r="314.961" /> 
</g>
<g style="fill:#000000; fill-opacity:1.0; 
stroke:#000000; stroke-width:39.3701; stroke-opacity:1; 
stroke-linecap:round; stroke-linejoin:round;">
</g>
<g style="fill:#000000; fill-opacity:1.0; 
stroke:#000000; stroke-width:629.921; stroke-opacity:1; 
stroke-linecap:round; stroke-linejoin:round;">
</g>
<g style="fill:#000000; fill-opacity:0.0; 
stroke:#000000; stroke-width:629.921; stroke-opacity:1; 
stroke-linecap:round; stroke-linejoin:round;">
<path d="M36600 34000
L36600 34000
" />
</g>
<g style="fill:#000000; fill-opacity:1.0; 
stroke:#000000; stroke-width:0; stroke-opacity:1; 
stroke-linecap:round; stroke-linejoin:round;">
<circle cx="33600" cy="38000" r="314.961" /> 
</g>
<g style="fill:#000000; fill-opacity:1.0; 
stroke:#000000; stroke-width:39.3701; stroke-opacity:1; 
stroke-linecap:round; stroke-linejoin:round;">
</g>
<g style="fill:#000000; fill-opacity:1.0; 
stroke:#000000; stroke-width:629.921; stroke-opacity:1; 
stroke-linecap:round; stroke-linejoin:round;">
</g>
<g style="fill:#000000; fill-opacity:0.0; 
stroke:#000000; stroke-width:629.921; stroke-opacity:1; 
stroke-linecap:round; stroke-linejoin:round;">
<path d="M36600 38000
L36600 38000
" />
</g>
<g style="fill:#000000; fill-opacity:1.0; 
stroke:#000000; stroke-width:0; stroke-opacity:1; 
stroke-linecap:round; stroke-linejoin:round;">
<circle cx="44800" cy="38000" r="314.961" /> 
</g>
<g style="fill:#000000; fill-opacity:1.0; 
stroke:#000000; stroke-width:39.3701; stroke-opacity:1; 
stroke-linecap:round; stroke-linejoin:round;">
</g>
<g style="fill:#000000; fill-opacity:1.0; 
stroke:#000000; stroke-width:629.921; stroke-opacity:1; 
stroke-linecap:round; stroke-linejoin:round;">
</g>
<g style="fill:#000000; fill-opacity:0.0; 
stroke:#000000; stroke-width:629.921; stroke-opacity:1; 
stroke-linecap:round; stroke-linejoin:round;">
<path d="M41800 38000
L41800 38000
" />
</g>
<g style="fill:#000000; fill-opacity:1.0; 
stroke:#000000; stroke-width:0; stroke-opacity:1; 
stroke-linecap:round; stroke-linejoin:round;">
<circle cx="44800" cy="34000" r="314.961" /> 
</g>
<g style="fill:#000000; fill-opacity:1.0; 
stroke:#000000; stroke-width:39.3701; stroke-opacity:1; 
stroke-linecap:round; stroke-linejoin:round;">
</g>
<g style="fill:#000000; fill-opacity:1.0; 
stroke:#000000; stroke-width:629.921; stroke-opacity:1; 
stroke-linecap:round; stroke-linejoin:round;">
</g>
<g style="fill:#000000; fill-opacity:0.0; 
stroke:#000000; stroke-width:629.921; stroke-opacity:1; 
stroke-linecap:round; stroke-linejoin:round;">
<path d="M41800 34000
L41800 34000
" />
</g>
<g style="fill:#000000; fill-opacity:0.0; 
stroke:#000000; stroke-width:196.85; stroke-opacity:1; 
stroke-linecap:round; stroke-linejoin:round;">
<path d="M12600 21000
L13600 22000
" />
<path d="M13600 22000
L13800 22200
" />
<path d="M15800 22131
L13731 22131
" />
<path d="M13731 22131
L13600 22000
" />
<path d="M13800 27800
L13800 24800
" />
<path d="M13800 24800
L13800 24131
" />
<path d="M13800 22200
L13800 24800
" />
<path d="M12600 20200
L12600 21000
" />
<path d="M26200 22131
L37331 22131
" />
<path d="M37331 22131
L38600 23400
" />
<path d="M38600 23400
L38600 27800
" />
<path d="M26200 27800
L26200 22131
" />
<path d="M26200 35200
L25400 36000
" />
<path d="M25400 27800
L26200 27800
" />
<path d="M37800 27800
L38600 27800
" />
<path d="M38600 35200
L37800 36000
" />
<path d="M13800 35200
L13000 36000
" />
<path d="M13800 27800
L13000 27800
" />
<path d="M26200 27800
L26200 35200
" />
<path d="M15800 22131
L26200 22131
" />
<path d="M13800 27800
L13800 35200
" />
<path d="M38600 27800
L38600 35200
" />
<path d="M24200 40000
L29600 40000
" />
<path d="M29600 40000
L32600 37000
" />
<path d="M21200 37000
L24200 40000
" />
<path d="M35000 25800
L35000 26000
" />
<path d="M35000 26000
L35000 29800
" />
<path d="M35000 40400
L35000 39400
" />
<path d="M30400 45000
L35000 40400
" />
<path d="M33600 34000
L35000 34000
" />
<path d="M35000 38000
L35000 40400
" />
<path d="M37400 40400
L37800 40400
" />
<path d="M37800 40400
L41600 40400
" />
<path d="M35000 40400
L37800 40400
" />
<path d="M41600 40400
L44000 38000
" />
<path d="M35000 34000
L35000 38000
" />
<path d="M44000 34000
L44000 38000
" />
<path d="M44000 29800
L44000 34000
" />
<path d="M44000 25800
L44000 29800
" />
<path d="M44000 22400
L44000 25800
" />
<path d="M35000 29800
L35000 34000
" />
<path d="M41800 20200
L44000 22400
" />
<path d="M33600 25800
L35000 25800
" />
<path d="M33600 29800
L35000 29800
" />
<path d="M35000 38000
L33600 38000
" />
<path d="M30400 45000
L29000 45000
" />
<path d="M40400 20200
L41800 20200
" />
<path d="M45000 25800
L44000 25800
" />
<path d="M45000 29800
L44000 29800
" />
<path d="M14000 45000
L29000 45000
" />
<path d="M44000 38000
L44800 38000
" />
<path d="M45000 34000
L44000 34000
" />
</g>
<g style="fill:#000000; fill-opacity:1.0; 
stroke:#000000; stroke-width:100; stroke-opacity:1; 
stroke-linecap:round; stroke-linejoin:round;">
<polyline style="fill-rule:evenodd;"
points="45950,45950
8050,45950
8050,44665
13410,44665
13410,45334
13427,45427
13482,45512
13566,45569
13665,45589
14334,45589
14427,45572
14512,45517
14569,45433
14574,45407
14586,45424
14776,45551
15000,45596
15223,45551
15413,45424
15464,45348
15535,45348
15586,45424
15776,45551
16000,45596
16223,45551
16413,45424
16464,45348
16535,45348
16586,45424
16776,45551
17000,45596
17223,45551
17413,45424
17464,45348
17535,45348
17586,45424
17776,45551
18000,45596
18223,45551
18413,45424
18464,45348
18535,45348
18586,45424
18776,45551
19000,45596
19223,45551
19413,45424
19464,45348
19535,45348
19586,45424
19776,45551
20000,45596
20223,45551
20413,45424
20464,45348
20535,45348
20586,45424
20776,45551
21000,45596
21223,45551
21413,45424
21464,45348
21535,45348
21586,45424
21776,45551
22000,45596
22223,45551
22413,45424
22464,45348
22535,45348
22586,45424
22776,45551
23000,45596
23223,45551
23413,45424
23464,45348
23535,45348
23586,45424
23776,45551
24000,45596
24223,45551
24413,45424
24464,45348
24535,45348
24586,45424
24776,45551
25000,45596
25223,45551
25413,45424
25464,45348
25535,45348
25586,45424
25776,45551
26000,45596
26223,45551
26413,45424
26464,45348
26535,45348
26586,45424
26776,45551
27000,45596
27223,45551
27413,45424
27464,45348
27535,45348
27586,45424
27776,45551
28000,45596
28223,45551
28413,45424
28464,45348
28535,45348
28586,45424
28776,45551
29000,45596
29223,45551
29413,45424
29464,45348
30399,45348
30400,45348
30511,45326
30533,45321
30646,45246
31227,44665
35210,44665
35210,45334
35227,45427
35282,45512
35366,45569
35465,45589
36134,45589
36227,45572
36312,45517
36369,45433
36374,45407
36386,45424
36576,45551
36800,45596
37023,45551
37213,45424
37300,45295
37386,45424
37576,45551
37800,45596
38023,45551
38213,45424
38300,45295
38386,45424
38576,45551
38800,45596
39023,45551
39213,45424
39300,45295
39386,45424
39576,45551
39800,45596
40023,45551
40213,45424
40300,45295
40386,45424
40576,45551
40800,45596
41023,45551
41213,45424
41300,45295
41386,45424
41576,45551
41800,45596
42023,45551
42213,45424
42300,45295
42386,45424
42576,45551
42800,45596
43023,45551
43213,45424
43340,45235
43384,45011
43384,44988
43340,44764
43213,44575
43100,44500
43213,44424
43340,44235
43384,44011
43384,43988
43340,43764
43213,43575
43023,43448
42800,43403
42576,43448
42386,43575
42300,43704
42213,43575
42023,43448
41800,43403
41576,43448
41386,43575
41300,43704
41213,43575
41023,43448
40800,43403
40576,43448
40386,43575
40300,43704
40213,43575
40023,43448
39800,43403
39576,43448
39386,43575
39300,43704
39213,43575
39023,43448
38800,43403
38576,43448
38386,43575
38300,43704
38213,43575
38023,43448
37800,43403
37576,43448
37386,43575
37300,43704
37213,43575
37023,43448
36800,43403
36576,43448
36386,43575
36300,43704
36213,43575
36023,43448
35800,43403
35576,43448
35386,43575
35259,43764
35215,43988
35215,44011
35259,44235
35386,44424
35387,44425
35372,44427
35287,44482
35230,44566
35210,44665
31227,44665
35144,40748
41599,40748
41600,40748
41711,40726
41733,40721
41846,40646
44144,38348
44349,38348
44479,38478
44687,38564
44911,38565
45119,38479
45278,38320
45364,38112
45365,37888
45279,37680
45120,37521
45063,37497
45210,37399
45333,37216
45376,37000
45333,36783
45210,36600
45027,36478
44811,36435
44788,36435
44572,36478
44389,36600
44348,36661
44348,35338
44389,35399
44572,35521
44788,35564
44811,35564
45027,35521
45210,35399
45333,35216
45376,35000
45333,34783
45210,34600
45063,34502
45119,34479
45278,34320
45364,34112
45365,33888
45279,33680
45120,33521
44912,33435
44688,33434
44480,33520
44349,33651
44348,33651
44348,30148
44549,30148
44679,30278
44887,30364
45111,30365
45319,30279
45478,30120
45564,29912
45565,29688
45479,29480
45320,29321
45263,29297
45410,29199
45533,29016
45576,28800
45533,28583
45410,28400
45227,28278
45011,28235
44988,28235
44772,28278
44589,28400
44466,28583
44423,28800
44466,29016
44589,29199
44736,29297
44680,29320
44549,29451
44348,29451
44348,26148
44549,26148
44679,26278
44736,26302
44589,26400
44466,26583
44423,26800
44466,27016
44589,27199
44772,27321
44988,27364
45011,27364
45227,27321
45410,27199
45533,27016
45576,26800
45533,26583
45410,26400
45263,26302
45319,26279
45478,26120
45564,25912
45565,25688
45479,25480
45320,25321
45112,25235
44888,25234
44680,25320
44549,25451
44348,25451
44348,22400
44321,22266
44246,22153
44246,22153
42046,19953
41933,19878
41911,19873
41800,19851
41799,19851
40864,19851
40813,19775
40623,19648
40400,19603
40176,19648
39986,19775
39900,19904
39813,19775
39623,19648
39400,19603
39176,19648
38986,19775
38900,19904
38813,19775
38623,19648
38400,19603
38176,19648
37986,19775
37900,19904
37813,19775
37623,19648
37400,19603
37176,19648
36986,19775
36900,19904
36813,19775
36623,19648
36400,19603
36176,19648
35986,19775
35900,19904
35813,19775
35623,19648
35400,19603
35176,19648
34986,19775
34900,19904
34813,19775
34623,19648
34400,19603
34176,19648
33986,19775
33900,19904
33813,19775
33623,19648
33400,19603
33176,19648
32986,19775
32900,19904
32813,19775
32623,19648
32400,19603
32176,19648
31986,19775
31900,19904
31813,19775
31623,19648
31400,19603
31176,19648
30986,19775
30900,19904
30813,19775
30623,19648
30400,19603
30176,19648
29986,19775
29900,19904
29813,19775
29623,19648
29400,19603
29176,19648
28986,19775
28900,19904
28813,19775
28623,19648
28400,19603
28176,19648
27986,19775
27900,19904
27813,19775
27623,19648
27400,19603
27176,19648
26986,19775
26900,19904
26813,19775
26623,19648
26400,19603
26176,19648
25986,19775
25900,19904
25813,19775
25623,19648
25400,19603
25176,19648
24986,19775
24900,19904
24813,19775
24623,19648
24400,19603
24176,19648
23986,19775
23900,19904
23813,19775
23623,19648
23400,19603
23176,19648
22986,19775
22900,19904
22813,19775
22623,19648
22400,19603
22176,19648
21986,19775
21900,19904
21813,19775
21623,19648
21400,19603
21176,19648
20986,19775
20900,19904
20813,19775
20623,19648
20400,19603
20176,19648
19986,19775
19900,19904
19813,19775
19623,19648
19400,19603
19176,19648
18986,19775
18900,19904
18813,19775
18623,19648
18400,19603
18176,19648
17986,19775
17900,19904
17813,19775
17623,19648
17400,19603
17176,19648
16986,19775
16900,19904
16813,19775
16623,19648
16400,19603
16176,19648
15986,19775
15975,19791
15972,19772
15917,19687
15833,19630
15734,19610
15065,19610
14972,19627
14887,19682
14830,19766
14810,19865
14810,20534
14827,20627
14882,20712
14966,20769
15065,20789
15734,20789
15827,20772
15912,20717
15969,20633
15974,20607
15986,20624
16176,20751
16400,20796
16623,20751
16813,20624
16900,20495
16986,20624
17176,20751
17400,20796
17623,20751
17813,20624
17900,20495
17986,20624
18176,20751
18400,20796
18623,20751
18813,20624
18900,20495
18986,20624
19176,20751
19400,20796
19623,20751
19813,20624
19900,20495
19986,20624
20176,20751
20400,20796
20623,20751
20813,20624
20900,20495
20986,20624
21176,20751
21400,20796
21623,20751
21813,20624
21900,20495
21986,20624
22176,20751
22400,20796
22623,20751
22813,20624
22900,20495
22986,20624
23176,20751
23400,20796
23623,20751
23813,20624
23900,20495
23986,20624
24176,20751
24400,20796
24623,20751
24813,20624
24900,20495
24986,20624
25176,20751
25400,20796
25623,20751
25813,20624
25900,20495
25986,20624
26176,20751
26400,20796
26623,20751
26813,20624
26900,20495
26986,20624
27176,20751
27400,20796
27623,20751
27813,20624
27900,20495
27986,20624
28176,20751
28400,20796
28623,20751
28813,20624
28900,20495
28986,20624
29176,20751
29400,20796
29623,20751
29813,20624
29900,20495
29986,20624
30176,20751
30400,20796
30623,20751
30813,20624
30900,20495
30986,20624
31176,20751
31400,20796
31623,20751
31813,20624
31900,20495
31986,20624
32176,20751
32400,20796
32623,20751
32813,20624
32900,20495
32986,20624
33176,20751
33400,20796
33623,20751
33813,20624
33900,20495
33986,20624
34176,20751
34400,20796
34623,20751
34813,20624
34900,20495
34986,20624
35176,20751
35400,20796
35623,20751
35813,20624
35900,20495
35986,20624
36176,20751
36400,20796
36623,20751
36813,20624
36900,20495
36986,20624
37176,20751
37400,20796
37623,20751
37813,20624
37900,20495
37986,20624
38176,20751
38400,20796
38623,20751
38813,20624
38900,20495
38986,20624
39176,20751
39400,20796
39623,20751
39813,20624
39900,20495
39986,20624
40176,20751
40400,20796
40623,20751
40813,20624
40864,20548
41655,20548
43651,22544
43651,37855
41455,40051
35348,40051
35348,38000
36023,38000
36066,38216
36189,38399
36372,38521
36588,38564
36611,38564
36827,38521
37010,38399
37133,38216
37176,38000
37133,37783
37010,37600
36863,37502
36919,37479
37078,37320
37164,37112
37165,36888
37079,36680
36920,36521
36712,36435
36488,36434
36280,36520
36121,36679
36035,36887
36034,37111
36120,37319
36279,37478
36336,37502
36189,37600
36066,37783
36023,38000
35348,38000
35348,34000
36023,34000
36066,34216
36189,34399
36336,34497
36280,34520
36121,34679
36035,34887
36034,35111
36120,35319
36279,35478
36487,35564
36711,35565
36919,35479
37078,35320
37164,35112
37165,34888
37079,34680
36920,34521
36863,34497
37010,34399
37133,34216
37176,34000
37133,33783
37010,33600
36827,33478
36611,33435
36588,33435
36372,33478
36189,33600
36066,33783
36023,34000
35348,34000
35348,29800
36023,29800
36066,30016
36189,30199
36372,30321
36588,30364
36611,30364
36827,30321
37010,30199
37133,30016
37176,29800
37133,29583
37010,29400
36863,29302
36919,29279
37078,29120
37164,28912
37165,28688
37079,28480
36920,28321
36712,28235
36488,28234
36280,28320
36121,28479
36035,28687
36034,28911
36120,29119
36279,29278
36336,29302
36189,29400
36066,29583
36023,29800
35348,29800
35348,25800
36023,25800
36066,26016
36189,26199
36336,26297
36280,26320
36121,26479
36035,26687
36034,26911
36120,27119
36279,27278
36487,27364
36711,27365
36919,27279
37078,27120
37164,26912
37165,26688
37079,26480
36920,26321
36863,26297
37010,26199
37133,26016
37176,25800
37133,25583
37010,25400
36827,25278
36611,25235
36588,25235
36372,25278
36189,25400
36066,25583
36023,25800
35348,25800
35321,25666
35246,25553
35133,25478
35000,25451
34050,25451
33920,25321
33712,25235
33488,25234
33280,25320
33121,25479
33035,25687
33034,25911
33120,26119
33279,26278
33336,26302
33189,26400
33100,26534
33010,26400
32827,26278
32611,26235
32588,26235
32372,26278
32189,26400
32066,26583
32023,26800
32066,27016
32189,27199
32372,27321
32588,27364
32611,27364
32827,27321
33010,27199
33100,27065
33189,27199
33372,27321
33588,27364
33611,27364
33827,27321
34010,27199
34133,27016
34176,26800
34133,26583
34010,26400
33863,26302
33919,26279
34050,26148
34651,26148
34651,29451
34050,29451
33920,29321
33863,29297
34010,29199
34133,29016
34176,28800
34133,28583
34010,28400
33827,28278
33611,28235
33588,28235
33372,28278
33189,28400
33100,28534
33010,28400
32827,28278
32611,28235
32588,28235
32372,28278
32189,28400
32066,28583
32023,28800
32066,29016
32189,29199
32372,29321
32588,29364
32611,29364
32827,29321
33010,29199
33100,29065
33189,29199
33336,29297
33280,29320
33121,29479
33035,29687
33034,29911
33120,30119
33279,30278
33487,30364
33711,30365
33919,30279
34050,30148
34651,30148
34651,33651
34050,33651
33920,33521
33712,33435
33488,33434
33280,33520
33121,33679
33035,33887
33034,34111
33120,34319
33279,34478
33336,34502
33189,34600
33100,34734
33010,34600
32827,34478
32611,34435
32588,34435
32372,34478
32189,34600
32066,34783
32023,35000
32066,35216
32189,35399
32372,35521
32588,35564
32611,35564
32827,35521
33010,35399
33100,35265
33189,35399
33372,35521
33588,35564
33611,35564
33827,35521
34010,35399
34133,35216
34176,35000
34133,34783
34010,34600
33863,34502
33919,34479
34050,34348
34651,34348
34651,37651
34050,37651
33920,37521
33863,37497
34010,37399
34133,37216
34176,37000
34133,36783
34010,36600
33827,36478
33611,36435
33588,36435
33372,36478
33189,36600
33100,36734
33010,36600
32827,36478
32611,36435
32588,36435
32372,36478
32189,36600
32066,36783
32023,37000
32037,37069
29455,39651
24344,39651
21804,37111
23634,37111
23720,37319
23879,37478
24087,37564
24311,37565
24519,37479
24678,37320
24764,37112
24765,36888
24679,36680
24520,36521
24312,36435
24088,36434
23880,36520
23721,36679
23635,36887
23634,37111
21804,37111
21762,37069
21776,37000
21733,36783
21610,36600
21427,36478
21211,36435
21188,36435
20972,36478
20789,36600
20700,36734
20610,36600
20427,36478
20211,36435
20188,36435
19972,36478
19789,36600
19666,36783
19623,37000
19666,37216
19789,37399
19972,37521
20188,37564
20211,37564
20427,37521
20610,37399
20700,37265
20789,37399
20972,37521
21188,37564
21211,37564
21262,37554
23953,40246
23953,40246
24066,40321
24200,40348
29599,40348
29600,40348
29711,40326
29733,40321
29846,40246
29846,40246
32537,37554
32588,37564
32611,37564
32827,37521
33010,37399
33100,37265
33189,37399
33336,37497
33280,37520
33121,37679
33035,37887
33034,38111
33120,38319
33279,38478
33487,38564
33711,38565
33919,38479
34050,38348
34651,38348
34651,40255
30255,44651
29464,44651
29413,44575
29300,44500
29413,44424
29540,44235
29584,44011
29584,43988
29540,43764
29413,43575
29223,43448
29000,43403
28776,43448
28586,43575
28500,43704
28413,43575
28223,43448
28000,43403
27776,43448
27586,43575
27500,43704
27413,43575
27223,43448
27000,43403
26776,43448
26586,43575
26500,43704
26413,43575
26223,43448
26000,43403
25776,43448
25586,43575
25500,43704
25413,43575
25223,43448
25000,43403
24776,43448
24586,43575
24500,43704
24413,43575
24223,43448
24000,43403
23776,43448
23586,43575
23500,43704
23413,43575
23223,43448
23000,43403
22776,43448
22586,43575
22500,43704
22413,43575
22223,43448
22000,43403
21776,43448
21586,43575
21500,43704
21413,43575
21223,43448
21000,43403
20776,43448
20586,43575
20500,43704
20413,43575
20223,43448
20000,43403
19776,43448
19586,43575
19500,43704
19413,43575
19223,43448
19000,43403
18776,43448
18586,43575
18500,43704
18413,43575
18223,43448
18000,43403
17776,43448
17586,43575
17500,43704
17413,43575
17223,43448
17000,43403
16776,43448
16586,43575
16500,43704
16413,43575
16223,43448
16000,43403
15776,43448
15586,43575
15500,43704
15413,43575
15223,43448
15000,43403
14776,43448
14586,43575
14500,43704
14413,43575
14223,43448
14000,43403
13776,43448
13586,43575
13459,43764
13415,43988
13415,44011
13459,44235
13586,44424
13587,44425
13572,44427
13487,44482
13430,44566
13410,44665
8050,44665
8050,37000
8223,37000
8266,37216
8389,37399
8572,37521
8788,37564
8811,37564
9027,37521
9210,37399
9333,37216
9353,37111
11234,37111
11320,37319
11479,37478
11687,37564
11911,37565
12119,37479
12278,37320
12364,37112
12365,36888
12279,36680
12120,36521
11912,36435
11688,36434
11480,36520
11321,36679
11235,36887
11234,37111
9353,37111
9376,37000
9333,36783
9210,36600
9027,36478
8811,36435
8788,36435
8572,36478
8389,36600
8266,36783
8223,37000
8050,37000
8050,35000
8223,35000
8266,35216
8389,35399
8572,35521
8788,35564
8811,35564
9027,35521
9210,35399
9333,35216
9353,35111
11234,35111
11320,35319
11479,35478
11687,35564
11911,35565
12119,35479
12278,35320
12364,35112
12365,34888
12279,34680
12120,34521
11912,34435
11688,34434
11480,34520
11321,34679
11235,34887
11234,35111
9353,35111
9376,35000
9333,34783
9210,34600
9027,34478
8811,34435
8788,34435
8572,34478
8389,34600
8266,34783
8223,35000
8050,35000
8050,28800
8223,28800
8266,29016
8389,29199
8572,29321
8788,29364
8811,29364
9027,29321
9210,29199
9333,29016
9353,28911
11234,28911
11320,29119
11479,29278
11687,29364
11911,29365
12119,29279
12278,29120
12364,28912
12365,28688
12279,28480
12120,28321
11912,28235
11688,28234
11480,28320
11321,28479
11235,28687
11234,28911
9353,28911
9376,28800
9333,28583
9210,28400
9027,28278
8811,28235
8788,28235
8572,28278
8389,28400
8266,28583
8223,28800
8050,28800
8050,26800
8223,26800
8266,27016
8389,27199
8572,27321
8788,27364
8811,27364
9027,27321
9210,27199
9333,27016
9353,26911
11234,26911
11320,27119
11479,27278
11687,27364
11911,27365
12119,27279
12278,27120
12364,26912
12365,26688
12279,26480
12120,26321
11912,26235
11688,26234
11480,26320
11321,26479
11235,26687
11234,26911
9353,26911
9376,26800
9333,26583
9210,26400
9027,26278
8811,26235
8788,26235
8572,26278
8389,26400
8266,26583
8223,26800
8050,26800
8050,20312
10015,20312
10015,20584
10053,20676
10123,20746
10215,20784
10487,20784
10550,20722
10550,20250
10077,20250
10015,20312
8050,20312
8050,19815
10015,19815
10015,20087
10077,20150
10550,20150
10550,19677
10650,19677
10650,20150
10657,20150
10657,20250
10650,20250
10650,20722
10712,20784
10984,20784
11076,20746
11146,20676
11175,20607
11186,20624
11376,20751
11600,20796
11823,20751
12013,20624
12100,20495
12186,20624
12251,20668
12251,20999
12251,21000
12273,21111
12278,21133
12353,21246
13353,22246
13353,22246
13451,22344
13451,24275
13414,24250
13314,24230
12685,24230
12592,24247
12507,24302
12450,24385
12430,24485
12430,25114
12447,25207
12502,25292
12585,25349
12646,25362
12589,25400
12466,25583
12423,25800
12466,26016
12589,26199
12739,26300
12589,26400
12466,26583
12423,26800
12466,27016
12589,27199
12739,27300
12589,27400
12466,27583
12423,27800
12466,28016
12589,28199
12739,28300
12589,28400
12466,28583
12423,28800
12466,29016
12589,29199
12739,29300
12589,29400
12466,29583
12423,29800
12466,30016
12589,30199
12739,30300
12589,30400
12466,30583
12423,30800
12466,31016
12589,31199
12772,31321
12988,31364
13011,31364
13227,31321
13410,31199
13451,31138
13451,32475
13414,32450
13314,32430
12685,32430
12592,32447
12507,32502
12450,32585
12430,32685
12430,33314
12447,33407
12502,33492
12585,33549
12646,33562
12589,33600
12466,33783
12423,34000
12466,34216
12589,34399
12739,34500
12589,34600
12466,34783
12423,35000
12466,35216
12589,35399
12739,35500
12589,35600
12466,35783
12423,36000
12466,36216
12589,36399
12739,36500
12589,36600
12466,36783
12423,37000
12466,37216
12589,37399
12739,37500
12589,37600
12466,37783
12423,38000
12466,38216
12589,38399
12739,38500
12589,38600
12466,38783
12423,39000
12466,39216
12589,39399
12772,39521
12988,39564
13011,39564
13227,39521
13410,39399
13533,39216
13576,39000
13533,38783
13410,38600
13260,38500
13410,38399
13533,38216
13576,38000
13533,37783
13410,37600
13260,37500
13410,37399
13533,37216
13576,37000
15423,37000
15466,37216
15589,37399
15739,37500
15589,37600
15466,37783
15423,38000
15466,38216
15589,38399
15739,38500
15589,38600
15466,38783
15423,39000
15466,39216
15589,39399
15772,39521
15988,39564
16011,39564
16227,39521
16410,39399
16533,39216
16576,39000
16533,38783
16410,38600
16260,38500
16410,38399
16533,38216
16576,38000
16533,37783
16410,37600
16260,37500
16410,37399
16533,37216
16553,37111
16634,37111
16720,37319
16879,37478
17087,37564
17311,37565
17519,37479
17678,37320
17764,37112
17765,36888
17679,36680
17520,36521
17312,36435
17088,36434
16880,36520
16721,36679
16635,36887
16634,37111
16553,37111
16576,37000
16533,36783
16410,36600
16251,36494
16336,36453
16484,36290
16547,36137
16499,36050
16050,36050
16050,36057
15950,36057
15950,36050
15500,36050
15452,36137
15515,36290
15663,36453
15748,36494
15589,36600
15466,36783
15423,37000
13576,37000
13533,36783
13410,36600
13260,36500
13410,36399
13533,36216
13576,36000
13562,35930
14046,35446
14046,35446
14121,35333
14145,35216
14148,35200
14148,35199
14148,33000
15423,33000
15466,33216
15589,33399
15739,33500
15589,33600
15466,33783
15423,34000
15466,34216
15589,34399
15739,34500
15589,34600
15466,34783
15423,35000
15466,35216
15589,35399
15748,35505
15663,35546
15515,35709
15452,35862
15500,35950
15950,35950
15950,35942
16050,35942
16050,35950
16499,35950
16547,35862
16484,35709
16336,35546
16251,35505
16410,35399
16533,35216
16553,35111
16634,35111
16720,35319
16879,35478
17087,35564
17311,35565
17519,35479
17678,35320
17764,35112
17764,35000
19623,35000
19666,35216
19789,35399
19972,35521
20188,35564
20211,35564
20427,35521
20610,35399
20700,35265
20789,35399
20972,35521
21188,35564
21211,35564
21427,35521
21610,35399
21733,35216
21753,35111
23634,35111
23720,35319
23879,35478
24087,35564
24311,35565
24519,35479
24678,35320
24764,35112
24765,34888
24679,34680
24520,34521
24312,34435
24088,34434
23880,34520
23721,34679
23635,34887
23634,35111
21753,35111
21776,35000
21733,34783
21610,34600
21427,34478
21211,34435
21188,34435
20972,34478
20789,34600
20700,34734
20610,34600
20427,34478
20211,34435
20188,34435
19972,34478
19789,34600
19666,34783
19623,35000
17764,35000
17765,34888
17679,34680
17520,34521
17312,34435
17088,34434
16880,34520
16721,34679
16635,34887
16634,35111
16553,35111
16576,35000
16533,34783
16410,34600
16260,34500
16410,34399
16533,34216
16576,34000
16533,33783
16410,33600
16260,33500
16410,33399
16533,33216
16576,33000
16533,32783
16410,32600
16227,32478
16011,32435
15988,32435
15772,32478
15589,32600
15466,32783
15423,33000
14148,33000
14148,28800
15423,28800
15466,29016
15589,29199
15739,29300
15589,29400
15466,29583
15423,29800
15466,30016
15589,30199
15739,30300
15589,30400
15466,30583
15423,30800
15466,31016
15589,31199
15772,31321
15988,31364
16011,31364
16227,31321
16410,31199
16533,31016
16576,30800
16533,30583
16410,30400
16260,30300
16410,30199
16533,30016
16576,29800
16533,29583
16410,29400
16260,29300
16410,29199
16533,29016
16553,28911
16634,28911
16720,29119
16879,29278
17087,29364
17311,29365
17519,29279
17678,29120
17764,28912
17764,28800
19623,28800
19666,29016
19789,29199
19972,29321
20188,29364
20211,29364
20427,29321
20610,29199
20700,29065
20789,29199
20972,29321
21188,29364
21211,29364
21427,29321
21610,29199
21733,29016
21753,28911
23634,28911
23720,29119
23879,29278
24087,29364
24311,29365
24519,29279
24678,29120
24764,28912
24765,28688
24679,28480
24520,28321
24312,28235
24088,28234
23880,28320
23721,28479
23635,28687
23634,28911
21753,28911
21776,28800
21733,28583
21610,28400
21427,28278
21211,28235
21188,28235
20972,28278
20789,28400
20700,28534
20610,28400
20427,28278
20211,28235
20188,28235
19972,28278
19789,28400
19666,28583
19623,28800
17764,28800
17765,28688
17679,28480
17520,28321
17312,28235
17088,28234
16880,28320
16721,28479
16635,28687
16634,28911
16553,28911
16576,28800
16533,28583
16410,28400
16251,28294
16336,28253
16484,28090
16547,27937
16499,27850
16050,27850
16050,27857
15950,27857
15950,27850
15500,27850
15452,27937
15515,28090
15663,28253
15748,28294
15589,28400
15466,28583
15423,28800
14148,28800
14148,24800
15423,24800
15466,25016
15589,25199
15739,25300
15589,25400
15466,25583
15423,25800
15466,26016
15589,26199
15739,26300
15589,26400
15466,26583
15423,26800
15466,27016
15589,27199
15748,27305
15663,27346
15515,27509
15452,27662
15500,27750
15950,27750
15950,27742
16050,27742
16050,27750
16499,27750
16547,27662
16484,27509
16336,27346
16251,27305
16410,27199
16533,27016
16553,26911
16634,26911
16720,27119
16879,27278
17087,27364
17311,27365
17519,27279
17678,27120
17764,26912
17764,26800
19623,26800
19666,27016
19789,27199
19972,27321
20188,27364
20211,27364
20427,27321
20610,27199
20700,27065
20789,27199
20972,27321
21188,27364
21211,27364
21427,27321
21610,27199
21733,27016
21753,26911
23634,26911
23720,27119
23879,27278
24087,27364
24311,27365
24519,27279
24678,27120
24764,26912
24765,26688
24679,26480
24520,26321
24312,26235
24088,26234
23880,26320
23721,26479
23635,26687
23634,26911
21753,26911
21776,26800
21733,26583
21610,26400
21427,26278
21211,26235
21188,26235
20972,26278
20789,26400
20700,26534
20610,26400
20427,26278
20211,26235
20188,26235
19972,26278
19789,26400
19666,26583
19623,26800
17764,26800
17765,26688
17679,26480
17520,26321
17312,26235
17088,26234
16880,26320
16721,26479
16635,26687
16634,26911
16553,26911
16576,26800
16533,26583
16410,26400
16260,26300
16410,26199
16533,26016
16576,25800
16533,25583
16410,25400
16260,25300
16410,25199
16533,25016
16576,24800
16533,24583
16410,24400
16227,24278
16011,24235
15988,24235
15772,24278
15589,24400
15466,24583
15423,24800
14148,24800
14148,22479
25851,22479
25851,24275
25814,24250
25714,24230
25085,24230
24992,24247
24907,24302
24850,24385
24830,24485
24830,25114
24847,25207
24902,25292
24985,25349
25046,25362
24989,25400
24866,25583
24823,25800
24866,26016
24989,26199
25139,26300
24989,26400
24866,26583
24823,26800
24866,27016
24989,27199
25139,27300
24989,27400
24866,27583
24823,27800
24866,28016
24989,28199
25139,28300
24989,28400
24866,28583
24823,28800
24866,29016
24989,29199
25139,29300
24989,29400
24866,29583
24823,29800
24866,30016
24989,30199
25139,30300
24989,30400
24866,30583
24823,30800
24866,31016
24989,31199
25172,31321
25388,31364
25411,31364
25627,31321
25810,31199
25851,31138
25851,32475
25814,32450
25714,32430
25085,32430
24992,32447
24907,32502
24850,32585
24830,32685
24830,33314
24847,33407
24902,33492
24985,33549
25046,33562
24989,33600
24866,33783
24823,34000
24866,34216
24989,34399
25139,34500
24989,34600
24866,34783
24823,35000
24866,35216
24989,35399
25139,35500
24989,35600
24866,35783
24823,36000
24866,36216
24989,36399
25139,36500
24989,36600
24866,36783
24823,37000
24866,37216
24989,37399
25139,37500
24989,37600
24866,37783
24823,38000
24866,38216
24989,38399
25139,38500
24989,38600
24866,38783
24823,39000
24866,39216
24989,39399
25172,39521
25388,39564
25411,39564
25627,39521
25810,39399
25933,39216
25976,39000
25933,38783
25810,38600
25660,38500
25810,38399
25933,38216
25976,38000
25933,37783
25810,37600
25660,37500
25810,37399
25933,37216
25976,37000
27823,37000
27866,37216
27989,37399
28139,37500
27989,37600
27866,37783
27823,38000
27866,38216
27989,38399
28139,38500
27989,38600
27866,38783
27823,39000
27866,39216
27989,39399
28172,39521
28388,39564
28411,39564
28627,39521
28810,39399
28933,39216
28976,39000
28933,38783
28810,38600
28660,38500
28810,38399
28933,38216
28976,38000
28933,37783
28810,37600
28660,37500
28810,37399
28933,37216
28953,37111
29034,37111
29120,37319
29279,37478
29487,37564
29711,37565
29919,37479
30078,37320
30164,37112
30165,36888
30079,36680
29920,36521
29712,36435
29488,36434
29280,36520
29121,36679
29035,36887
29034,37111
28953,37111
28976,37000
28933,36783
28810,36600
28651,36494
28736,36453
28884,36290
28947,36137
28899,36050
28450,36050
28450,36057
28350,36057
28350,36050
27900,36050
27852,36137
27915,36290
28063,36453
28148,36494
27989,36600
27866,36783
27823,37000
25976,37000
25933,36783
25810,36600
25660,36500
25810,36399
25933,36216
25976,36000
25962,35930
26446,35446
26446,35446
26521,35333
26545,35216
26548,35200
26548,35199
26548,33000
27823,33000
27866,33216
27989,33399
28139,33500
27989,33600
27866,33783
27823,34000
27866,34216
27989,34399
28139,34500
27989,34600
27866,34783
27823,35000
27866,35216
27989,35399
28148,35505
28063,35546
27915,35709
27852,35862
27900,35950
28350,35950
28350,35942
28450,35942
28450,35950
28899,35950
28947,35862
28884,35709
28736,35546
28651,35505
28810,35399
28933,35216
28953,35111
29034,35111
29120,35319
29279,35478
29487,35564
29711,35565
29919,35479
30078,35320
30164,35112
30165,34888
30079,34680
29920,34521
29712,34435
29488,34434
29280,34520
29121,34679
29035,34887
29034,35111
28953,35111
28976,35000
28933,34783
28810,34600
28660,34500
28810,34399
28933,34216
28976,34000
28933,33783
28810,33600
28660,33500
28810,33399
28933,33216
28976,33000
28933,32783
28810,32600
28627,32478
28411,32435
28388,32435
28172,32478
27989,32600
27866,32783
27823,33000
26548,33000
26548,28800
27823,28800
27866,29016
27989,29199
28139,29300
27989,29400
27866,29583
27823,29800
27866,30016
27989,30199
28139,30300
27989,30400
27866,30583
27823,30800
27866,31016
27989,31199
28172,31321
28388,31364
28411,31364
28627,31321
28810,31199
28933,31016
28976,30800
28933,30583
28810,30400
28660,30300
28810,30199
28933,30016
28976,29800
28933,29583
28810,29400
28660,29300
28810,29199
28933,29016
28953,28911
29034,28911
29120,29119
29279,29278
29487,29364
29711,29365
29919,29279
30078,29120
30164,28912
30165,28688
30079,28480
29920,28321
29712,28235
29488,28234
29280,28320
29121,28479
29035,28687
29034,28911
28953,28911
28976,28800
28933,28583
28810,28400
28651,28294
28736,28253
28884,28090
28947,27937
28899,27850
28450,27850
28450,27857
28350,27857
28350,27850
27900,27850
27852,27937
27915,28090
28063,28253
28148,28294
27989,28400
27866,28583
27823,28800
26548,28800
26548,24800
27823,24800
27866,25016
27989,25199
28139,25300
27989,25400
27866,25583
27823,25800
27866,26016
27989,26199
28139,26300
27989,26400
27866,26583
27823,26800
27866,27016
27989,27199
28148,27305
28063,27346
27915,27509
27852,27662
27900,27750
28350,27750
28350,27742
28450,27742
28450,27750
28899,27750
28947,27662
28884,27509
28736,27346
28651,27305
28810,27199
28933,27016
28953,26911
29034,26911
29120,27119
29279,27278
29487,27364
29711,27365
29919,27279
30078,27120
30164,26912
30165,26688
30079,26480
29920,26321
29712,26235
29488,26234
29280,26320
29121,26479
29035,26687
29034,26911
28953,26911
28976,26800
28933,26583
28810,26400
28660,26300
28810,26199
28933,26016
28976,25800
28933,25583
28810,25400
28660,25300
28810,25199
28933,25016
28976,24800
28933,24583
28810,24400
28627,24278
28411,24235
28388,24235
28172,24278
27989,24400
27866,24583
27823,24800
26548,24800
26548,22479
37187,22479
38251,23544
38251,24275
38214,24250
38114,24230
37485,24230
37392,24247
37307,24302
37250,24385
37230,24485
37230,25114
37247,25207
37302,25292
37385,25349
37446,25362
37389,25400
37266,25583
37223,25800
37266,26016
37389,26199
37539,26300
37389,26400
37266,26583
37223,26800
37266,27016
37389,27199
37539,27300
37389,27400
37266,27583
37223,27800
37266,28016
37389,28199
37539,28300
37389,28400
37266,28583
37223,28800
37266,29016
37389,29199
37539,29300
37389,29400
37266,29583
37223,29800
37266,30016
37389,30199
37539,30300
37389,30400
37266,30583
37223,30800
37266,31016
37389,31199
37572,31321
37788,31364
37811,31364
38027,31321
38210,31199
38251,31138
38251,32475
38214,32450
38114,32430
37485,32430
37392,32447
37307,32502
37250,32585
37230,32685
37230,33314
37247,33407
37302,33492
37385,33549
37446,33562
37389,33600
37266,33783
37223,34000
37266,34216
37389,34399
37539,34500
37389,34600
37266,34783
37223,35000
37266,35216
37389,35399
37539,35500
37389,35600
37266,35783
37223,36000
37266,36216
37389,36399
37539,36500
37389,36600
37266,36783
37223,37000
37266,37216
37389,37399
37539,37500
37389,37600
37266,37783
37223,38000
37266,38216
37389,38399
37539,38500
37389,38600
37266,38783
37223,39000
37266,39216
37389,39399
37572,39521
37788,39564
37811,39564
38027,39521
38210,39399
38333,39216
38376,39000
38333,38783
38210,38600
38060,38500
38210,38399
38333,38216
38376,38000
38333,37783
38210,37600
38060,37500
38210,37399
38333,37216
38376,37000
40223,37000
40266,37216
40389,37399
40539,37500
40389,37600
40266,37783
40223,38000
40266,38216
40389,38399
40539,38500
40389,38600
40266,38783
40223,39000
40266,39216
40389,39399
40572,39521
40788,39564
40811,39564
41027,39521
41210,39399
41333,39216
41376,39000
41333,38783
41210,38600
41060,38500
41210,38399
41300,38265
41389,38399
41572,38521
41788,38564
41811,38564
42027,38521
42210,38399
42333,38216
42376,38000
42333,37783
42210,37600
42063,37502
42119,37479
42278,37320
42364,37112
42365,36888
42279,36680
42120,36521
41912,36435
41688,36434
41480,36520
41321,36679
41299,36733
41210,36600
41051,36494
41136,36453
41284,36290
41347,36137
41299,36050
40850,36050
40850,36057
40750,36057
40750,36050
40300,36050
40252,36137
40315,36290
40463,36453
40548,36494
40389,36600
40266,36783
40223,37000
38376,37000
38333,36783
38210,36600
38060,36500
38210,36399
38333,36216
38376,36000
38362,35930
38846,35446
38846,35446
38921,35333
38945,35216
38948,35200
38948,35199
38948,33000
40223,33000
40266,33216
40389,33399
40539,33500
40389,33600
40266,33783
40223,34000
40266,34216
40389,34399
40539,34500
40389,34600
40266,34783
40223,35000
40266,35216
40389,35399
40548,35505
40463,35546
40315,35709
40252,35862
40300,35950
40750,35950
40750,35942
40850,35942
40850,35950
41299,35950
41347,35862
41284,35709
41136,35546
41051,35505
41210,35399
41299,35267
41320,35319
41479,35478
41687,35564
41911,35565
42119,35479
42278,35320
42364,35112
42365,34888
42279,34680
42120,34521
42063,34497
42210,34399
42333,34216
42376,34000
42333,33783
42210,33600
42027,33478
41811,33435
41788,33435
41572,33478
41389,33600
41300,33734
41210,33600
41060,33500
41210,33399
41333,33216
41376,33000
41333,32783
41210,32600
41027,32478
40811,32435
40788,32435
40572,32478
40389,32600
40266,32783
40223,33000
38948,33000
38948,28800
40223,28800
40266,29016
40389,29199
40539,29300
40389,29400
40266,29583
40223,29800
40266,30016
40389,30199
40539,30300
40389,30400
40266,30583
40223,30800
40266,31016
40389,31199
40572,31321
40788,31364
40811,31364
41027,31321
41210,31199
41333,31016
41376,30800
41333,30583
41210,30400
41060,30300
41210,30199
41333,30016
41376,29800
41423,29800
41466,30016
41589,30199
41772,30321
41988,30364
42011,30364
42227,30321
42410,30199
42533,30016
42576,29800
42533,29583
42410,29400
42263,29302
42319,29279
42478,29120
42564,28912
42565,28688
42479,28480
42320,28321
42112,28235
41888,28234
41680,28320
41521,28479
41435,28687
41434,28911
41520,29119
41679,29278
41736,29302
41589,29400
41466,29583
41423,29800
41376,29800
41333,29583
41210,29400
41060,29300
41210,29199
41333,29016
41376,28800
41333,28583
41210,28400
41051,28294
41136,28253
41284,28090
41347,27937
41299,27850
40850,27850
40850,27857
40750,27857
40750,27850
40300,27850
40252,27937
40315,28090
40463,28253
40548,28294
40389,28400
40266,28583
40223,28800
38948,28800
38948,24800
40223,24800
40266,25016
40389,25199
40539,25300
40389,25400
40266,25583
40223,25800
40266,26016
40389,26199
40539,26300
40389,26400
40266,26583
40223,26800
40266,27016
40389,27199
40548,27305
40463,27346
40315,27509
40252,27662
40300,27750
40750,27750
40750,27742
40850,27742
40850,27750
41299,27750
41347,27662
41284,27509
41136,27346
41051,27305
41210,27199
41333,27016
41376,26800
41333,26583
41210,26400
41060,26300
41210,26199
41333,26016
41376,25800
41423,25800
41466,26016
41589,26199
41736,26297
41680,26320
41521,26479
41435,26687
41434,26911
41520,27119
41679,27278
41887,27364
42111,27365
42319,27279
42478,27120
42564,26912
42565,26688
42479,26480
42320,26321
42263,26297
42410,26199
42533,26016
42576,25800
42533,25583
42410,25400
42227,25278
42011,25235
41988,25235
41772,25278
41589,25400
41466,25583
41423,25800
41376,25800
41333,25583
41210,25400
41060,25300
41210,25199
41333,25016
41376,24800
41333,24583
41210,24400
41027,24278
40811,24235
40788,24235
40572,24278
40389,24400
40266,24583
40223,24800
38948,24800
38948,23400
38948,23400
38921,23266
38846,23153
38846,23153
37577,21885
37567,21878
37464,21809
37442,21805
37331,21783
37331,21783
13875,21783
13846,21753
13846,21753
12948,20855
12948,20668
13013,20624
13140,20435
13184,20211
13184,20188
13140,19964
13013,19775
12823,19648
12600,19603
12376,19648
12186,19775
12100,19904
12013,19775
11823,19648
11600,19603
11376,19648
11186,19775
11175,19792
11146,19723
11076,19653
10984,19615
10712,19615
10650,19677
10550,19677
10487,19615
10215,19615
10123,19653
10053,19723
10015,19815
8050,19815
8050,18050
45950,18050
45950,45950
" /> 
</g> 
</svg>
